# xmcd CD database file
#
# Track frame offsets:
#	150
#	18337
#	27997
#
# Disc length: 558 seconds
#
# Revision: 0
# Processed by: cddbd v1.5.1PL0 Copyright (c) Steve Scherf et al.
# Submitted via: CDex 1.51
#
DISCID=19022c03
DTITLE=THE HIGH-LOWS - 砂鉄
DYEAR=2004
DGENRE=Rock
TTITLE0=砂鉄
TTITLE1=ヤゴ
TTITLE2=ただ一人の男
EXTD=YEAR: 2004
EXTT0=
EXTT1=
EXTT2=
PLAYORDER=
